<svg width="66" height="21" viewBox="0 0 66 21" fill="none" xmlns="http://www.w3.org/2000/svg">
<path d="M32.9953 20.4058C38.4661 20.4058 42.901 15.9708 42.901 10.5C42.901 5.0292 38.4661 0.594238 32.9953 0.594238C27.5245 0.594238 23.0895 5.0292 23.0895 10.5C23.0895 15.9708 27.5245 20.4058 32.9953 20.4058Z" fill="#394149"/>
<path d="M55.1392 20.4058C60.61 20.4058 65.0449 15.9708 65.0449 10.5C65.0449 5.0292 60.61 0.594238 55.1392 0.594238C49.6684 0.594238 45.2334 5.0292 45.2334 10.5C45.2334 15.9708 49.6684 20.4058 55.1392 20.4058Z" fill="#394149"/>
<path d="M20.7571 0.594238H0.955078V20.3963H20.7571V0.594238Z" fill="#394149"/>
</svg>
